<svg width="348" height="86" viewBox="0 0 348 86" fill="none" xmlns="http://www.w3.org/2000/svg">
<path d="M110.641 27.9805C112.743 27.9805 114.561 28.2794 116.095 28.8771C117.629 29.4415 118.964 30.2219 120.098 31.218V38.1912C119.297 37.5935 118.463 37.0124 117.596 36.4479C116.729 35.8834 115.745 35.4186 114.644 35.0533C113.577 34.688 112.309 34.5054 110.842 34.5054C108.84 34.5054 107.022 34.9869 105.388 35.9498C103.754 36.9128 102.453 38.2078 101.486 39.8349C100.518 41.462 100.035 43.3215 100.035 45.4134C100.035 47.4722 100.518 49.3317 101.486 50.992C102.453 52.6191 103.754 53.9141 105.388 54.8771C107.022 55.8068 108.84 56.2717 110.842 56.2717C113.076 56.2717 114.944 55.9396 116.445 55.2755C117.98 54.5782 119.364 53.7315 120.598 52.7353V59.4594C119.464 60.4888 118.046 61.3189 116.345 61.9498C114.644 62.5475 112.743 62.8464 110.641 62.8464C108.24 62.8464 105.972 62.4313 103.837 61.6012C101.702 60.7378 99.8177 59.5424 98.1827 58.015C96.5487 56.4543 95.2647 54.6114 94.3307 52.4862C93.3967 50.3611 92.9297 48.0035 92.9297 45.4134C92.9297 42.8234 93.3967 40.4658 94.3307 38.3407C95.2647 36.2155 96.5487 34.3892 98.1827 32.8617C99.8177 31.3011 101.702 30.1057 103.837 29.2755C105.972 28.4122 108.24 27.9805 110.641 27.9805Z" fill="#181818"/>
<path d="M137.431 36.2976C139.999 36.2976 142.151 37.161 143.885 38.8876C145.619 40.6143 146.487 43.2044 146.487 46.6578V62.0984H140.133L140.083 47.5045C140.083 45.811 139.666 44.5492 138.832 43.7191C138.031 42.8889 136.914 42.4739 135.48 42.4739C134.346 42.4739 133.278 42.8391 132.278 43.5696C131.31 44.3002 130.476 45.1635 129.776 46.1597V62.0984H123.422V26.2363H129.776V40.5313C130.543 39.5019 131.577 38.539 132.878 37.6424C134.212 36.7459 135.73 36.2976 137.431 36.2976Z" fill="#181818"/>
<path d="M160.98 36.2969C162.348 36.2969 163.732 36.6124 165.133 37.2433C166.534 37.8742 167.701 38.7209 168.635 39.7835V36.9444H174.989V62.0977H168.635V57.864C167.901 59.2254 166.834 60.4042 165.433 61.4004C164.032 62.3633 162.398 62.8448 160.53 62.8448C158.495 62.8448 156.611 62.3301 154.876 61.3007C153.175 60.2714 151.807 58.7771 150.773 56.818C149.739 54.8588 149.222 52.4846 149.222 49.6954C149.222 46.9061 149.739 44.5153 150.773 42.523C151.841 40.5306 153.258 39.0032 155.026 37.9406C156.827 36.8448 158.812 36.2969 160.98 36.2969ZM162.281 42.4732C160.947 42.4732 159.796 42.8218 158.829 43.5191C157.895 44.1832 157.161 45.0632 156.627 46.159C156.094 47.2548 155.827 48.4336 155.827 49.6954C155.827 51.5881 156.394 53.1986 157.528 54.5268C158.695 55.855 160.23 56.5191 162.131 56.5191C163.265 56.5191 164.316 56.2203 165.283 55.6226C166.284 55.0249 167.084 54.1947 167.684 53.1322C168.318 52.0364 168.635 50.7247 168.635 49.1973V45.6111C167.734 44.6481 166.751 43.8844 165.683 43.3199C164.649 42.7554 163.515 42.4732 162.281 42.4732Z" fill="#181818"/>
<path d="M185.536 23.8457C186.737 23.8457 187.771 24.2774 188.638 25.1407C189.505 25.9709 189.939 26.967 189.939 28.1292C189.939 29.2582 189.505 30.2544 188.638 31.1177C187.771 31.9811 186.737 32.4127 185.536 32.4127C184.335 32.4127 183.301 31.9811 182.434 31.1177C181.6 30.2544 181.183 29.2582 181.183 28.1292C181.183 26.967 181.6 25.9709 182.434 25.1407C183.301 24.2774 184.335 23.8457 185.536 23.8457ZM189.238 36.9453V62.0986H182.884V42.3246H178.832V36.9453H189.238Z" fill="#181818"/>
<path d="M198.731 36.9444V40.5306C199.498 39.5012 200.532 38.5383 201.833 37.6417C203.167 36.7452 204.684 36.2969 206.386 36.2969C208.954 36.2969 211.105 37.1603 212.84 38.8869C214.574 40.6136 215.441 43.2037 215.441 46.6571V62.0977H209.087L209.037 47.5038C209.037 45.8103 208.62 44.5485 207.786 43.7184C206.986 42.8882 205.869 42.4732 204.434 42.4732C203.3 42.4732 202.233 42.8384 201.232 43.5689C200.265 44.2995 199.431 45.1628 198.731 46.159V62.0977H192.376V36.9444H198.731Z" fill="#181818"/>
<path d="M232.588 28.7266C234.155 28.7266 235.69 28.9923 237.191 29.5236C238.691 30.0549 240.042 30.8352 241.243 31.8646C242.477 32.8939 243.445 34.1391 244.145 35.6002C244.879 37.028 245.246 38.6717 245.246 40.5312C245.246 42.7892 244.662 44.7981 243.495 46.558C242.361 48.2847 240.843 49.6462 238.942 50.6423C237.04 51.6385 234.972 52.1366 232.738 52.1366C231.237 52.1366 229.886 51.9872 228.685 51.6883C227.484 51.3895 226.484 51.0408 225.683 50.6423V62.0983H218.729V28.7266H232.588ZM225.683 35.2017V45.0638C226.417 45.3626 227.301 45.6283 228.335 45.8607C229.402 46.06 230.486 46.1596 231.587 46.1596C233.588 46.1596 235.173 45.6117 236.34 44.5159C237.541 43.3869 238.141 42.0587 238.141 40.5312C238.141 38.7713 237.474 37.4431 236.14 36.5465C234.806 35.65 233.238 35.2017 231.437 35.2017H225.683Z" fill="#181818"/>
<path d="M257.826 36.2969C259.193 36.2969 260.578 36.6124 261.979 37.2433C263.379 37.8742 264.547 38.7209 265.481 39.7835V36.9444H271.835V62.0977H265.481V57.864C264.747 59.2254 263.68 60.4042 262.279 61.4004C260.878 62.3633 259.243 62.8448 257.376 62.8448C255.341 62.8448 253.456 62.3301 251.722 61.3007C250.021 60.2714 248.653 58.7771 247.619 56.818C246.585 54.8588 246.068 52.4846 246.068 49.6954C246.068 46.9061 246.585 44.5153 247.619 42.523C248.687 40.5306 250.104 39.0032 251.872 37.9406C253.673 36.8448 255.658 36.2969 257.826 36.2969ZM259.127 42.4732C257.793 42.4732 256.642 42.8218 255.674 43.5191C254.741 44.1832 254.007 45.0632 253.473 46.159C252.939 47.2548 252.673 48.4336 252.673 49.6954C252.673 51.5881 253.24 53.1986 254.374 54.5268C255.541 55.855 257.075 56.5191 258.977 56.5191C260.111 56.5191 261.161 56.2203 262.129 55.6226C263.129 55.0249 263.93 54.1947 264.53 53.1322C265.164 52.0364 265.481 50.7247 265.481 49.1973V45.6111C264.58 44.6481 263.596 43.8844 262.529 43.3199C261.495 42.7554 260.361 42.4732 259.127 42.4732Z" fill="#181818"/>
<path d="M283.929 29.623V36.9448H290.933V42.2245H283.929V53.0827C283.929 54.2117 284.179 55.1083 284.679 55.7724C285.213 56.4033 285.997 56.7188 287.031 56.7188C287.931 56.7188 288.699 56.6191 289.332 56.4199C289.999 56.2207 290.616 55.9384 291.183 55.5732V60.6038C290.55 61.2347 289.749 61.766 288.782 62.1977C287.848 62.6294 286.664 62.8452 285.23 62.8452C282.962 62.8452 281.11 62.1313 279.676 60.7034C278.275 59.2424 277.575 57.2501 277.575 54.7264V42.2245H273.022V38.987C274.623 38.4225 276.09 37.3599 277.425 35.7992C278.792 34.2386 279.876 32.1798 280.677 29.623H283.929Z" fill="#181818"/>
<path d="M308.988 44.0182C307.921 43.4205 306.803 43.1217 305.636 43.1217C304.168 43.1217 302.951 43.6031 301.983 44.5661C301.016 45.4959 300.166 46.6581 299.432 48.0527V62.0987H293.078V36.9454H299.432V41.6772C300.299 40.183 301.316 38.9378 302.484 37.9416C303.685 36.9454 305.035 36.4473 306.536 36.4473C307.437 36.4473 308.254 36.5968 308.988 36.8956V44.0182Z" fill="#181818"/>
<path d="M324.112 36.2969C326.58 36.2969 328.832 36.8946 330.866 38.09C332.901 39.2522 334.535 40.8461 335.769 42.8716C337.037 44.864 337.671 47.1053 337.671 49.5958C337.671 52.0862 337.037 54.3276 335.769 56.3199C334.535 58.3122 332.901 59.9061 330.866 61.1015C328.832 62.2637 326.58 62.8448 324.112 62.8448C321.677 62.8448 319.425 62.2637 317.357 61.1015C315.323 59.9061 313.688 58.3122 312.454 56.3199C311.22 54.3276 310.603 52.0862 310.603 49.5958C310.603 47.1053 311.22 44.864 312.454 42.8716C313.688 40.8461 315.323 39.2522 317.357 38.09C319.425 36.8946 321.677 36.2969 324.112 36.2969ZM324.112 42.4233C322.911 42.4233 321.794 42.7056 320.76 43.2701C319.726 43.8346 318.892 44.6481 318.258 45.7107C317.658 46.7733 317.357 48.0683 317.357 49.5958C317.357 51.1232 317.658 52.4182 318.258 53.4808C318.892 54.5434 319.726 55.3569 320.76 55.9214C321.794 56.4527 322.911 56.7184 324.112 56.7184C325.313 56.7184 326.43 56.4527 327.464 55.9214C328.498 55.3569 329.332 54.5434 329.966 53.4808C330.599 52.4182 330.916 51.1232 330.916 49.5958C330.916 48.0683 330.599 46.7733 329.966 45.7107C329.332 44.6481 328.498 43.8346 327.464 43.2701C326.43 42.7056 325.313 42.4233 324.112 42.4233Z" fill="#181818"/>
<path d="M345.93 26.2363V62.0984H339.576V26.2363H345.93Z" fill="#181818"/>
<path d="M13.6137 36.1182L14.2437 36.4595L13.6175 36.8044L13.2725 37.4419L12.9256 36.8101L12.29 36.4632L12.92 36.1182L13.2668 35.4863L13.6137 36.1182Z" fill="white"/>
<path d="M55.732 37.2469L56.6976 37.7719L55.732 38.3062L55.207 39.2738L54.6782 38.312L53.7051 37.7831L54.6726 37.2525L55.1957 36.2812L55.732 37.2469Z" fill="white"/>
<path d="M60.9395 42.6556L61.4289 42.9144L60.9451 43.1844L60.6808 43.6681L60.4164 43.1844L59.9326 42.9256L60.4108 42.6556L60.6751 42.1719L60.9395 42.6556Z" fill="white"/>
<path d="M10.4675 15.9741L10.9513 16.2384L10.4675 16.5028L10.2069 16.9922L9.94253 16.5084L9.45312 16.2422L9.93693 15.9778L10.2031 15.4941L10.4675 15.9741Z" fill="white"/>
<path d="M59.9568 30.9858L60.4406 31.2445L59.9568 31.5089L59.6925 31.9983L59.4281 31.5145L58.9443 31.2502L59.4281 30.9858L59.6868 30.502L59.9568 30.9858Z" fill="white"/>
<path d="M8.50265 23.1296L9.47015 23.6546L8.50644 24.1833L7.97765 25.1565L7.44895 24.189L6.48145 23.664L7.44324 23.1296L7.96825 22.1621L8.50265 23.1296Z" fill="white"/>
<path d="M8.67526 31.6475L9.30716 31.9887L8.67526 32.3394L8.33406 32.9712L7.98716 32.3394L7.35156 31.9981L7.98346 31.6475L8.32836 31.0156L8.67526 31.6475Z" fill="white"/>
<path d="M8.31892 40.9249L8.95452 41.2699L8.32452 41.6167L7.97762 42.2524L7.63082 41.6224L6.99512 41.2755L7.62702 40.9305L7.97202 40.293L8.31892 40.9249Z" fill="white"/>
<path d="M58.52 15.8917L59.1575 16.2385L58.5257 16.5835L58.1807 17.221L57.8338 16.5892L57.1982 16.2423L57.8282 15.8973L58.175 15.2598L58.52 15.8917Z" fill="white"/>
<path d="M60.2564 22.7882L60.8883 23.1351L60.2564 23.4819L59.9151 24.1119L59.5645 23.4819L58.9326 23.1407L59.5645 22.7882L59.9058 22.1582L60.2564 22.7882Z" fill="white"/>
<path d="M34.0494 52.5967L32.6338 52.5461V46.1973H34.0494V52.5967Z" fill="#F9F9F9"/>
<path d="M35.7485 52.5461L34.3291 52.5967V46.1973H35.7485V52.5461Z" fill="#F9F9F9"/>
<path d="M49.8612 41.0561C47.7031 40.7205 43.8631 40.5874 39.6124 40.5724C39.5974 40.5724 39.5862 40.5724 39.5712 40.5724C38.1143 40.5668 36.6087 40.5724 35.0956 40.593C34.6774 40.593 34.2706 40.593 33.8487 40.6024C33.4268 40.6024 33.0181 40.593 32.6018 40.593C31.0906 40.5724 29.5831 40.5668 28.1262 40.5724C28.1262 40.5724 28.0999 40.5724 28.0849 40.5724C23.8343 40.5874 19.9962 40.7205 17.8362 41.0561C17.8362 41.0561 1.08117 45.2918 2.60367 55.3774C2.88867 56.2268 3.30677 57.2355 3.89177 58.3961C6.78307 64.1036 13.9512 73.4205 31.6943 84.8336C32.3562 85.2611 33.0987 85.4693 33.8487 85.4655C34.5968 85.4655 35.3412 85.2611 36.0031 84.8336C53.7443 73.4205 60.9124 64.1036 63.8056 58.3961C64.3906 57.2355 64.8087 56.2268 65.0937 55.3774C66.6162 45.2918 49.8612 41.0561 49.8612 41.0561Z" fill="white"/>
<path d="M63.0783 55.9021C63.0521 55.9639 63.0277 56.0296 63.0015 56.0952C62.7465 56.7627 62.4165 57.5203 61.9833 58.3659C59.2646 63.6403 52.5296 72.2596 35.8571 82.8233C35.8515 82.8233 35.8515 82.8233 35.8477 82.8233C35.3996 83.1083 34.9065 83.2864 34.4077 83.3633C34.3102 83.3783 34.2202 83.3896 34.1227 83.3933C33.639 83.4289 33.1496 83.3671 32.6827 83.2096C32.3977 83.1177 32.1127 82.9902 31.8483 82.8177C15.1758 72.2539 8.43522 63.6347 5.71652 58.3603C5.28332 57.5147 4.95332 56.7571 4.70402 56.0896C4.67772 56.0127 4.64772 55.9414 4.62332 55.8758C2.72962 46.5589 18.6446 42.4358 18.6446 42.4358C20.7071 42.1152 24.3465 41.9877 28.3946 41.9727C29.7802 41.9727 31.2202 41.9727 32.6565 41.9933C33.0577 41.9933 33.4552 41.9933 33.864 42.0027C34.2652 42.0027 34.6683 41.9933 35.0658 41.9933C36.5021 41.9727 37.9477 41.9671 39.3277 41.9727C43.3758 41.9877 47.0208 42.1152 49.0777 42.4358C49.0777 42.4358 65.0283 46.5702 63.0933 55.9021H63.0783Z" fill="url(#paint0_radial_842_45)"/>
<path d="M35.8043 45.4746V83.0871C35.3505 83.3777 34.8518 83.5559 34.3438 83.6327V45.4765H35.8043V45.4746Z" fill="#16073E"/>
<path d="M34.0534 45.4746V83.6627C33.564 83.6984 33.0653 83.6365 32.5928 83.479V45.4746H34.0534Z" fill="#16073E"/>
<path d="M35.8043 44.248V51.1668C35.3355 51.2024 34.8368 51.223 34.3438 51.2287V44.248H35.8043Z" fill="white"/>
<path d="M34.0534 44.248V51.2287C33.5547 51.2287 33.0615 51.2024 32.5928 51.1668V44.2537H34.0534V44.248Z" fill="white"/>
<path d="M63.0781 55.9005C63.0687 55.9624 63.0519 56.028 63.0369 56.0936H4.66247C4.64747 56.0224 4.62687 55.9455 4.61747 55.8799C2.72367 46.563 18.6387 42.4399 18.6387 42.4399C20.7012 42.1192 24.3406 41.9917 28.3887 41.9767C29.7744 41.9767 31.2144 41.9767 32.6506 41.9974C33.0519 41.9974 33.4494 41.9974 33.8581 42.0067C34.2612 42.0067 34.6625 41.9974 35.06 41.9974C36.4962 41.9767 37.9419 41.9711 39.3219 41.9767C43.37 41.9917 47.015 42.1192 49.0719 42.4399C49.0719 42.4399 65.0225 46.5742 63.0875 55.9061L63.0781 55.9005Z" fill="#16073E"/>
<path d="M33.774 53.9019L32.3584 53.8456V46.6719H33.774V53.9019Z" fill="#F9F9F9"/>
<path d="M35.475 53.8456L34.0537 53.9019V46.6719H35.475V53.8456Z" fill="#F9F9F9"/>
<path d="M7.33624 60.2141C7.27064 60.1279 7.19934 60.0454 7.13184 59.9648L7.33624 60.2141Z" fill="#16073E"/>
<path d="M24.626 29.4024V23.2168L28.4435 28.6693L24.626 29.4024Z" fill="black" stroke="white" stroke-width="0.1" stroke-miterlimit="10"/>
<path d="M67.5432 51.8431V12.9069C67.5432 9.71563 64.937 7.12442 61.7138 7.11312L32.6588 7.01562L5.82947 7.11312C2.60627 7.12252 7.03011e-05 9.71373 7.03011e-05 12.9069V51.8487C7.03011e-05 51.8487 -0.258728 65.2231 30.6282 84.6912C32.5426 85.8987 34.997 85.8987 36.9113 84.6912C67.7982 65.2231 67.5395 51.8487 67.5395 51.8487L67.5432 51.8431ZM35.7095 79.9756C34.5226 80.7237 33.0263 80.7237 31.8395 79.9756C4.68377 62.8137 4.91257 50.9881 4.91257 50.9881V16.0381C4.91257 13.895 6.57197 12.1644 8.61947 12.1587L32.822 12.0669L58.9295 12.1587C60.9807 12.1681 62.6401 13.9006 62.6401 16.0381V50.9825C62.6401 50.9825 62.8632 62.8081 35.7095 79.97V79.9756Z" fill="url(#paint1_linear_842_45)"/>
<path d="M55.1059 16.5675V1.32C55.1059 0.770601 54.6634 0.3281 54.114 0.3281C53.5647 0.3281 53.1222 0.770601 53.1222 1.32V13.2881C49.9609 5.2087 42.5997 0 34.0159 0C24.4759 0 16.4472 6.435 14.019 16.0969H14.0097C12.7778 16.0969 11.7803 17.0794 11.7803 18.2869V26.5294C11.7803 27.7406 12.7778 28.7194 14.0097 28.7194H14.1072C14.8347 31.3256 16.0103 33.6019 17.5384 35.5312C17.5384 35.6587 17.5478 35.7862 17.5534 35.9137H17.5178C17.5178 41.3156 17.5178 47.8669 34.0178 47.8669C50.5178 47.8669 50.5178 41.3156 50.5178 35.9137C50.5234 35.7806 50.5028 35.655 50.5028 35.5219C51.9784 33.6581 53.1297 31.47 53.8572 28.9744C53.9228 28.98 53.9847 28.995 54.0503 28.995H54.1984C55.4303 28.995 56.4278 28.0125 56.4278 26.805V18.5644C56.424 17.6719 55.8784 16.9087 55.1059 16.5675Z" fill="white"/>
<path d="M49.3069 35.1094C49.3069 40.1194 49.5357 46.1981 34.0032 46.1981C18.4707 46.1981 18.6994 40.1194 18.6994 35.1094" fill="url(#paint2_radial_842_45)"/>
<path d="M49.3069 33.1094C49.3069 38.1194 49.5357 44.1981 34.0032 44.1981C18.4707 44.1981 18.6994 38.1194 18.6994 33.1094" fill="url(#paint3_linear_842_45)"/>
<path d="M53.2871 22.4949C53.2871 34.5699 44.6621 41.5956 34.0327 41.5956C23.4033 41.5956 14.7783 34.5699 14.7783 22.4949C14.7783 10.4199 22.7246 2.48682 32.7708 1.83622C33.189 1.80992 33.6108 1.79492 34.0327 1.79492H34.2315C34.329 1.79492 34.4246 1.80062 34.5221 1.80062C35.0115 1.81562 35.499 1.84562 35.9827 1.89812C45.6971 2.87312 53.2871 11.1624 53.2871 22.4949Z" fill="url(#paint4_radial_842_45)"/>
<path d="M34.299 41.5945C45.5152 41.5945 52.9365 35.1239 52.9365 24.5601C52.9365 13.9964 45.3296 18.4251 34.1152 18.4251C22.9009 18.4251 15.1309 13.3551 15.1309 23.9189C15.1309 34.4826 23.0827 41.5945 34.299 41.5945Z" fill="#16073E"/>
<path d="M34.2631 39.031C43.8593 39.031 50.2081 33.9854 50.2081 25.7542C50.2081 17.5229 43.7018 20.9692 34.1056 20.9692C24.5093 20.9692 17.8662 17.0185 17.8662 25.2498C17.8662 33.481 24.665 39.031 34.2631 39.031Z" fill="url(#paint5_linear_842_45)"/>
<path d="M34.0031 1.79492H34.2019V19.5774H32.7412V1.83432L34.0031 1.79492Z" fill="#16073E"/>
<path d="M35.9528 1.89633V19.5776H34.4922V1.79883C34.9797 1.81573 35.4691 1.84573 35.9528 1.89633Z" fill="#16073E"/>
<path d="M23.8725 53.334H44.1243C45.1031 53.334 45.8962 54.1271 45.8962 55.1058V66.3615C45.8962 67.3402 45.1031 68.1333 44.1243 68.1333H23.8725C22.8937 68.1333 22.1006 67.3402 22.1006 66.3615V55.1058C22.1006 54.1271 22.8937 53.334 23.8725 53.334Z" fill="url(#paint6_radial_842_45)"/>
<path d="M28.2558 59.8046C29.2789 59.8046 30.1083 58.9752 30.1083 57.9521C30.1083 56.929 29.2789 56.0996 28.2558 56.0996C27.2327 56.0996 26.4033 56.929 26.4033 57.9521C26.4033 58.9752 27.2327 59.8046 28.2558 59.8046Z" fill="#16073E"/>
<path d="M29.1357 56.3088L29.1451 56.2995C29.1451 56.2995 29.1095 56.2732 29.0382 56.2282C28.9613 56.1663 28.8863 56.1157 28.7982 56.0707C26.3701 54.4263 11.897 45.8182 18.9263 38.9088L18.7276 34.8457C18.7276 34.8457 3.15947 43.2663 26.7563 59.2676L26.7657 59.2582C27.077 59.4813 27.4576 59.6145 27.8701 59.6145C28.9182 59.6145 29.7695 58.7651 29.7695 57.7151C29.7695 57.1545 29.5257 56.6613 29.1376 56.3107H29.1357V56.3088Z" fill="url(#paint7_radial_842_45)"/>
<path d="M37.6329 56.2832H35.7842V65.4163H37.6329V56.2832Z" fill="#16073E"/>
<path d="M40.3721 56.2832H38.5234V65.4163H40.3721V56.2832Z" fill="#16073E"/>
<path d="M43.1924 56.2832H41.3438V65.4163H43.1924V56.2832Z" fill="#16073E"/>
<defs>
<radialGradient id="paint0_radial_842_45" cx="0" cy="0" r="1" gradientUnits="userSpaceOnUse" gradientTransform="translate(33.8532 62.6871) scale(25.4269 25.4269)">
<stop stop-color="white"/>
<stop offset="0.39" stop-color="#EDEDED"/>
<stop offset="1" stop-color="#CCCCCC"/>
</radialGradient>
<linearGradient id="paint1_linear_842_45" x1="33.7717" y1="7.01662" x2="33.7717" y2="85.595" gradientUnits="userSpaceOnUse">
<stop stop-color="#6022DC"/>
<stop offset="1" stop-color="#DC22D1"/>
</linearGradient>
<radialGradient id="paint2_radial_842_45" cx="0" cy="0" r="1" gradientUnits="userSpaceOnUse" gradientTransform="translate(34.0033 40.6535) scale(11.5096 11.5096)">
<stop stop-color="white"/>
<stop offset="0.15" stop-color="#F9F9F9"/>
<stop offset="0.34" stop-color="#E8E8E8"/>
<stop offset="0.56" stop-color="#CCCCCC"/>
<stop offset="0.8" stop-color="#A5A5A5"/>
<stop offset="1" stop-color="#808080"/>
</radialGradient>
<linearGradient id="paint3_linear_842_45" x1="34.0033" y1="33.1093" x2="34.0033" y2="44.1975" gradientUnits="userSpaceOnUse">
<stop stop-color="#1F1F1F"/>
<stop offset="0.09" stop-color="#282828"/>
<stop offset="0.25" stop-color="#424242"/>
<stop offset="0.45" stop-color="#6C6C6C"/>
<stop offset="0.69" stop-color="#A7A7A7"/>
<stop offset="0.95" stop-color="#F0F0F0"/>
<stop offset="1" stop-color="white"/>
</linearGradient>
<radialGradient id="paint4_radial_842_45" cx="0" cy="0" r="1" gradientUnits="userSpaceOnUse" gradientTransform="translate(34.0334 21.6952) scale(19.5801 19.5801)">
<stop stop-color="white"/>
<stop offset="0.42" stop-color="#FDFDFD"/>
<stop offset="0.57" stop-color="#F6F6F6"/>
<stop offset="0.68" stop-color="#EAEAEA"/>
<stop offset="0.77" stop-color="#D9D9D9"/>
<stop offset="0.84" stop-color="#C3C3C3"/>
<stop offset="0.91" stop-color="#A8A8A8"/>
<stop offset="0.97" stop-color="#888888"/>
<stop offset="1" stop-color="#737373"/>
</radialGradient>
<linearGradient id="paint5_linear_842_45" x1="17.8642" y1="29.5253" x2="50.2073" y2="29.5253" gradientUnits="userSpaceOnUse">
<stop stop-color="#6022DC"/>
<stop offset="1" stop-color="#DC22D1"/>
</linearGradient>
<radialGradient id="paint6_radial_842_45" cx="0" cy="0" r="1" gradientUnits="userSpaceOnUse" gradientTransform="translate(32.3527 60.1002) scale(9.14181 12.9686)">
<stop stop-color="white"/>
<stop offset="0.36" stop-color="#EDEEEE"/>
<stop offset="0.89" stop-color="#CED0D1"/>
<stop offset="1" stop-color="#CCCCCC"/>
</radialGradient>
<radialGradient id="paint7_radial_842_45" cx="0" cy="0" r="1" gradientUnits="userSpaceOnUse" gradientTransform="translate(21.7324 47.2293) scale(10.4405)">
<stop stop-color="white"/>
<stop offset="0.39" stop-color="#EDEDED"/>
<stop offset="1" stop-color="#CCCCCC"/>
</radialGradient>
</defs>
</svg>
